<svg width="568" height="367" viewBox="0 0 568 367" fill="none" xmlns="http://www.w3.org/2000/svg">
<rect x="1.5" y="1.5" width="565" height="364"/>
<path d="M558.378 102.582C536.842 139.397 474.896 140.525 489.721 234.405C506.37 339.622 409.952 384.846 344.086 358.783C278.22 332.72 282.845 236.085 157.681 233.113C29.7167 230.077 2.79579 108.536 2.79579 108.536" stroke="#FB6542" stroke-width="2" stroke-miterlimit="10"/>
<path d="M461.942 74.2792C461.942 120.923 425.762 154.482 438.752 234.287C451.743 314.092 393.357 323.424 370.095 314.092C321.854 294.733 312.577 191.232 234.66 184.501C176.084 179.47 97.3449 219.508 55.6266 128.645" stroke="#FB6542" stroke-width="2" stroke-miterlimit="10"/>
<path d="M422.978 110.044C431.126 123.12 409.29 170.858 378.459 177.392C354.112 182.552 313.523 121.219 230.042 158.421C200.347 171.664 80.6939 175.585 104.814 102.564" stroke="#FB6542" stroke-width="2" stroke-miterlimit="10"/>
<path d="M381.242 285.798C395.072 285.798 406.284 269.292 406.284 248.931C406.284 228.57 395.072 212.064 381.242 212.064C367.412 212.064 356.2 228.57 356.2 248.931C356.2 269.292 367.412 285.798 381.242 285.798Z" stroke="#FB6542" stroke-width="2" stroke-miterlimit="10"/>
</svg>
